<?xml version="1.0" encoding="UTF-8"?>
<svg id="Capa_1" xmlns="http://www.w3.org/2000/svg" version="1.1" xmlns:xlink="http://www.w3.org/1999/xlink" viewBox="0 0 595.3 267.2">
  <!-- Generator: Adobe Illustrator 30.2.1, SVG Export Plug-In . SVG Version: 2.1.1 Build 1)  -->
  <defs>
    <style>
      .st0 {
        fill: url(#Degradado_sin_nombre_88);
      }

      .st1 {
        fill: url(#Degradado_sin_nombre_84);
      }
    </style>
    <linearGradient id="Degradado_sin_nombre_84" data-name="Degradado sin nombre 84" x1="24" y1="136.9" x2="583.2" y2="136.9" gradientUnits="userSpaceOnUse">
      <stop offset="0" stop-color="#e94e1b"/>
      <stop offset="0" stop-color="#e24e1d"/>
      <stop offset=".1" stop-color="#d14f25"/>
      <stop offset=".2" stop-color="#b55131"/>
      <stop offset=".3" stop-color="#8d5443"/>
      <stop offset=".4" stop-color="#5b5759"/>
      <stop offset=".4" stop-color="#53585d"/>
    </linearGradient>
    <linearGradient id="Degradado_sin_nombre_88" data-name="Degradado sin nombre 88" x1="122.9" y1="154.6" x2="206.3" y2="71.2" gradientUnits="userSpaceOnUse">
      <stop offset="0" stop-color="#e94e1b"/>
      <stop offset=".4" stop-color="#e77127"/>
      <stop offset=".8" stop-color="#e7892f"/>
      <stop offset="1" stop-color="#e79233"/>
    </linearGradient>
  </defs>
  <path class="st1" d="M366.6,16c6.1,1.6,10.9,5.4,13.5,11.7,4.5,10.9,7.1,22.1,9.1,33.9l11,65.4,15.5,96.5,14.9-85.9c1.8-10.3,7.2-38.7,18.4-40.7,5.4-1,10.2.3,13.4,4.1,7.8,9.1,12.1,29.8,15.9,42.2l93.7,8c4,.3,7.3.5,11.2,1.7l-30.5,3.9-73.5,8.4c-20,2.3-20.9-21.7-25.9-34.8l-7,45.2c-3,19.5-5.7,38.4-10.8,57.4s-7.6,24.3-19.3,24.8c-4.3.2-8.4-2.2-11.3-5.7-7.9-9.4-13.2-36.6-15.2-49.5l-23.8-149.6-14.9,92.4c-2.2,13.8-4.7,27-10.4,39.5s-6.1,8.3-10.3,9.2c-21.4,4.5-26.1-35.3-30.7-49.4-4.5,10.2-8.5,19-15,27.3-10.5,13.4-25.3,22.8-43,22.8l-156.3.2c-5,14.6-18.9,22.9-33.8,21s-25.5-14-27.7-28.9v-2.6c2-15.2,12.2-27.5,27.2-29.5s29.9,6.3,34.6,21.7l149.4-.3c12.1,0,22.4-7.4,30-15.7,16.7-18.3,21.3-45.2,36.8-43.6s14.9,14.6,16.9,22.1l7.3,26.8,17.3-107.8c1.7-10.6,4.2-20.2,7.9-29.9s7.1-10,13.4-11.9h1.8ZM67.8,181.4c-1.6-6.4-8.3-9.7-14.2-8.9-6,.8-10.3,5.9-10.4,12.2s3.9,10.7,10,12.2c4.6,1.1,9-.4,11.8-3.1s4.1-7.6,2.9-12.4Z"/>
  <path class="st0" d="M174.7,150.5c-6.4,16.1-24.5,22.4-39.6,14.6-14.4-7.5-19.3-26.1-9.9-40.3s16.2-13.5,27.3-12,18.4,7.9,22.3,18.2l34.1.2-19.2-32.1c-1.6-2.6-3.3-4.2-6.7-4.3l-22.3-.3c-10.2-.1-19.9-.4-30.2-.2-7.1,15.4-25.6,21.7-40.1,13.2-8.2-4.8-13-13.4-13.7-21.8s3.6-18.9,11.4-24.8,16.8-6.5,26.3-3.4,13,9.7,16.9,17.2l51.5.9c8.3.1,16.2,2.3,20.6,9.6l27.5,46.2,36.4,1c-3,12.1-9,19-21.1,18.9l-71.5-.6ZM109,92.4c5.3-2.4,6.7-8.4,4.9-13.1s-6.5-7.2-11.6-6.2-9,7.7-7.5,12.8,8.2,9.3,14.2,6.5ZM157.4,146c2.5-3.9,1.9-8.4-.6-11.9s-5.6-4.5-9.6-4.1c-5.2.5-8.3,5.1-8.8,9.5s2.8,8.9,6.3,10.2,9.8.7,12.7-3.8Z"/>
  <image width="638" height="276" transform="translate(6.4 -274.7) scale(.9)" xlink:href="imagen.png"/>
</svg>